<svg xmlns="http://www.w3.org/2000/svg" width="49" height="29.95" viewBox="0 0 49 29.95">
  <g id="food-tray-4034" transform="translate(126.036 77.039)">
    <g id="Group_6" data-name="Group 6" transform="translate(-126.036 -77.039)">
      <path id="Path_8" data-name="Path 8" d="M45.842,72.633h-.491a20.78,20.78,0,0,0-7.837-15.239,1.089,1.089,0,1,0-1.359,1.7,18.613,18.613,0,0,1,7.014,13.537H20.945a1.089,1.089,0,1,0,0,2.178h24.9a.98.98,0,1,1,0,1.959H3.158a.98.98,0,1,1,0-1.959H15.378a1.089,1.089,0,0,0,0-2.178H5.83A18.712,18.712,0,0,1,32.19,56.668a1.089,1.089,0,0,0,.9-1.985,20.711,20.711,0,0,0-4.7-1.476v-.328a3.882,3.882,0,0,0-7.764,0v.33A20.916,20.916,0,0,0,3.649,72.633H3.158a3.158,3.158,0,1,0,0,6.315H45.842a3.158,3.158,0,1,0,0-6.315ZM22.8,52.88a1.7,1.7,0,0,1,3.409,0v.038c-.565-.045-1.132-.075-1.7-.075s-1.142.03-1.7.075Z" transform="translate(0 -48.997)" fill="#d95d39"/>
      <path id="Path_9" data-name="Path 9" d="M47.6,105.129a1.09,1.09,0,0,1-1-1.51,16.625,16.625,0,0,1,10.42-9.481,1.089,1.089,0,1,1,.646,2.079,14.455,14.455,0,0,0-9.058,8.243A1.09,1.09,0,0,1,47.6,105.129Z" transform="translate(-37.474 -85.324)" fill="#d95d39"/>
      <path id="Path_10" data-name="Path 10" d="M187.467,128.606a1.089,1.089,0,0,1-1.037-.756,14.405,14.405,0,0,0-2.317-4.4,1.089,1.089,0,1,1,1.724-1.33,16.578,16.578,0,0,1,2.667,5.067,1.089,1.089,0,0,1-1.037,1.423Z" transform="translate(-148.141 -107.561)" fill="#d95d39"/>
    </g>
    <g id="Group_7" data-name="Group 7" transform="translate(-126.036 -77.039)">
      <path id="Path_8-2" data-name="Path 8" d="M45.842,72.633h-.491a20.78,20.78,0,0,0-7.837-15.239,1.089,1.089,0,1,0-1.359,1.7,18.613,18.613,0,0,1,7.014,13.537H20.945a1.089,1.089,0,1,0,0,2.178h24.9a.98.98,0,1,1,0,1.959H3.158a.98.98,0,1,1,0-1.959H15.378a1.089,1.089,0,0,0,0-2.178H5.83A18.712,18.712,0,0,1,32.19,56.668a1.089,1.089,0,0,0,.9-1.985,20.711,20.711,0,0,0-4.7-1.476v-.328a3.882,3.882,0,0,0-7.764,0v.33A20.916,20.916,0,0,0,3.649,72.633H3.158a3.158,3.158,0,1,0,0,6.315H45.842a3.158,3.158,0,1,0,0-6.315ZM22.8,52.88a1.7,1.7,0,0,1,3.409,0v.038c-.565-.045-1.132-.075-1.7-.075s-1.142.03-1.7.075Z" transform="translate(0 -48.997)" fill="#d95d39"/>
      <path id="Path_9-2" data-name="Path 9" d="M47.6,105.129a1.09,1.09,0,0,1-1-1.51,16.625,16.625,0,0,1,10.42-9.481,1.089,1.089,0,1,1,.646,2.079,14.455,14.455,0,0,0-9.058,8.243A1.09,1.09,0,0,1,47.6,105.129Z" transform="translate(-37.474 -85.324)" fill="#d95d39"/>
      <path id="Path_10-2" data-name="Path 10" d="M187.467,128.606a1.089,1.089,0,0,1-1.037-.756,14.405,14.405,0,0,0-2.317-4.4,1.089,1.089,0,1,1,1.724-1.33,16.578,16.578,0,0,1,2.667,5.067,1.089,1.089,0,0,1-1.037,1.423Z" transform="translate(-148.141 -107.561)" fill="#d95d39"/>
    </g>
  </g>
</svg>
