<svg xmlns="http://www.w3.org/2000/svg" width="19.9" height="24.043" viewBox="0 0 19.9 24.043">
  <path id="_17676289951537184110" data-name="17676289951537184110" d="M37.893,23.039,36.43,6.746a.863.863,0,0,0-.86-.786H32.554V4.6a4.6,4.6,0,1,0-9.2,0V5.96H20.337a.863.863,0,0,0-.86.786L18.008,23.1a.863.863,0,0,0,.86.94H37.042a.863.863,0,0,0,.863-.863A.879.879,0,0,0,37.893,23.039ZM25.082,4.6a2.873,2.873,0,1,1,5.746,0V5.96H25.082Zm-5.27,17.718L21.126,7.686h2.23V9.229a.863.863,0,1,0,1.726,0V7.686h5.746V9.229a.863.863,0,0,0,1.726,0V7.686h2.228L36.1,22.317H19.812Z" transform="translate(-18.005)" fill="#fff"/>
</svg>
